<?xml version="1.0" encoding="UTF-8" standalone="no"?>
<!-- Created with Inkscape (http://www.inkscape.org/) -->

<svg
   xmlns:dc="http://purl.org/dc/elements/1.1/"
   xmlns:cc="http://creativecommons.org/ns#"
   xmlns:rdf="http://www.w3.org/1999/02/22-rdf-syntax-ns#"
   xmlns:svg="http://www.w3.org/2000/svg"
   xmlns="http://www.w3.org/2000/svg"
   xmlns:xlink="http://www.w3.org/1999/xlink"
   xmlns:sodipodi="http://sodipodi.sourceforge.net/DTD/sodipodi-0.dtd"
   xmlns:inkscape="http://www.inkscape.org/namespaces/inkscape"
   width="256"
   height="256"
   id="svg2"
   version="1.1"
   inkscape:version="0.48.3.1 r9886"
   sodipodi:docname="delete.svg"
   inkscape:export-filename="/home/joel/fuse/agda-devel/srv/agda/git/agda-server/static/images/delete/delete_256.png"
   inkscape:export-xdpi="90"
   inkscape:export-ydpi="90">
  <defs
     id="defs4">
    <linearGradient
       id="linearGradient4312">
      <stop
         id="stop4314"
         offset="0"
         style="stop-color:#a3a3a3;stop-opacity:0.97254902;" />
      <stop
         style="stop-color:#9d9d9d;stop-opacity:0.49565217;"
         offset="0.80296046"
         id="stop4316" />
      <stop
         id="stop4318"
         offset="1"
         style="stop-color:#b7b7b7;stop-opacity:0.24347825;" />
    </linearGradient>
    <linearGradient
       id="linearGradient4003">
      <stop
         style="stop-color:#ffffff;stop-opacity:0.49565217;"
         offset="0"
         id="stop4005" />
      <stop
         style="stop-color:#ffffff;stop-opacity:0;"
         offset="1"
         id="stop4007" />
    </linearGradient>
    <linearGradient
       id="linearGradient3905">
      <stop
         style="stop-color:#a3a3a3;stop-opacity:0.97254902;"
         offset="0"
         id="stop3907" />
      <stop
         id="stop3915"
         offset="0.88571429"
         style="stop-color:#a3a3a3;stop-opacity:0.97254902;" />
      <stop
         style="stop-color:#b7b7b7;stop-opacity:0.53043479;"
         offset="1"
         id="stop3909" />
    </linearGradient>
    <linearGradient
       id="linearGradient3883">
      <stop
         style="stop-color:#ff0000;stop-opacity:1;"
         offset="0"
         id="stop3885" />
      <stop
         id="stop3897"
         offset="0.82864785"
         style="stop-color:#ff3d3d;stop-opacity:1;" />
      <stop
         id="stop3893"
         offset="1"
         style="stop-color:#ff7b7b;stop-opacity:1;" />
    </linearGradient>
    <inkscape:perspective
       sodipodi:type="inkscape:persp3d"
       inkscape:vp_x="0 : 128 : 1"
       inkscape:vp_y="0 : 1000 : 0"
       inkscape:vp_z="256 : 128 : 1"
       inkscape:persp3d-origin="128 : 85.333333 : 1"
       id="perspective2985" />
    <linearGradient
       inkscape:collect="always"
       xlink:href="#linearGradient3883-3"
       id="linearGradient3889-9"
       x1="112.46134"
       y1="218.49277"
       x2="124.68597"
       y2="13.49277"
       gradientUnits="userSpaceOnUse" />
    <linearGradient
       id="linearGradient3883-3">
      <stop
         style="stop-color:#ff0000;stop-opacity:1;"
         offset="0"
         id="stop3885-2" />
      <stop
         id="stop3897-3"
         offset="0.64580244"
         style="stop-color:#ff3d3d;stop-opacity:1;" />
      <stop
         id="stop3893-1"
         offset="1"
         style="stop-color:#ff7b7b;stop-opacity:1;" />
    </linearGradient>
    <linearGradient
       inkscape:collect="always"
       xlink:href="#linearGradient3883-4"
       id="linearGradient3889-3"
       x1="112.46134"
       y1="218.49277"
       x2="124.68597"
       y2="13.49277"
       gradientUnits="userSpaceOnUse" />
    <linearGradient
       id="linearGradient3883-4">
      <stop
         style="stop-color:#ff0000;stop-opacity:1;"
         offset="0"
         id="stop3885-7" />
      <stop
         id="stop3897-5"
         offset="0.64580244"
         style="stop-color:#ff3d3d;stop-opacity:1;" />
      <stop
         id="stop3893-2"
         offset="1"
         style="stop-color:#ff7b7b;stop-opacity:1;" />
    </linearGradient>
    <radialGradient
       inkscape:collect="always"
       xlink:href="#linearGradient3905"
       id="radialGradient4225"
       gradientUnits="userSpaceOnUse"
       gradientTransform="matrix(1,0,0,0.14285716,0,172.67294)"
       cx="230.31477"
       cy="201.45177"
       fx="230.31477"
       fy="201.45177"
       r="113.13708" />
    <linearGradient
       inkscape:collect="always"
       xlink:href="#linearGradient3883"
       id="linearGradient4227"
       gradientUnits="userSpaceOnUse"
       x1="112.46134"
       y1="218.49277"
       x2="124.68597"
       y2="13.49277" />
    <linearGradient
       inkscape:collect="always"
       xlink:href="#linearGradient4003"
       id="linearGradient4229"
       gradientUnits="userSpaceOnUse"
       gradientTransform="matrix(0,1,-1,0,1037.8412,785.83153)"
       x1="30.495487"
       y1="944.8067"
       x2="188.97993"
       y2="870.9342" />
    <linearGradient
       inkscape:collect="always"
       xlink:href="#linearGradient4003"
       id="linearGradient4300"
       gradientUnits="userSpaceOnUse"
       gradientTransform="matrix(0,1.0029904,-1.0029904,0,1040.9417,785.76424)"
       x1="30.495487"
       y1="944.8067"
       x2="188.97993"
       y2="870.9342" />
    <linearGradient
       inkscape:collect="always"
       xlink:href="#linearGradient3883"
       id="linearGradient4303"
       gradientUnits="userSpaceOnUse"
       x1="112.46134"
       y1="218.49277"
       x2="124.68597"
       y2="13.49277"
       gradientTransform="matrix(1.0029904,0,0,1.0029904,-0.00302077,796.32638)" />
    <radialGradient
       inkscape:collect="always"
       xlink:href="#linearGradient4312"
       id="radialGradient4310"
       gradientUnits="userSpaceOnUse"
       gradientTransform="matrix(1,0,0,0.14285716,0,172.67294)"
       cx="230.31477"
       cy="201.45177"
       fx="230.31477"
       fy="201.45177"
       r="113.13708" />
    <clipPath
       clipPathUnits="userSpaceOnUse"
       id="clipPath4326">
      <path
         style="fill:#ffffff;fill-opacity:1;stroke:none"
         d="m -205,1028.7907 c -3.79249,1.5171 -2.28925,1.4286 -4.28571,1.4286 -0.2381,0 -0.54593,-0.1683 -0.71429,0 -0.16836,0.1684 0.21296,0.6078 0,0.7143 -0.42592,0.213 -1.00265,-0.2129 -1.42857,0 -0.21296,0.1065 0.16836,0.5459 0,0.7143 -0.16836,0.1684 -0.47619,0 -0.71429,0 -1.19047,0 -2.38095,0 -3.57143,0 -0.17323,0 -2.11988,0.023 -2.14285,0 -0.16836,-0.1684 0.16836,-0.5459 0,-0.7143 -0.16836,-0.1683 -0.54593,0.1684 -0.71429,0 -0.16836,-0.1683 0.16836,-0.5459 0,-0.7143 -0.16836,-0.1683 -0.54593,0.1684 -0.71428,0 -0.14603,-0.146 0.1416,-1.8596 0,-2.1428 -0.15059,-0.3012 -0.56371,-0.4131 -0.71429,-0.7143 -0.12776,-0.2555 0.22067,-2.0325 0,-2.1429 -0.42592,-0.2129 -1.00265,0.213 -1.42857,0 -0.21296,-0.1065 0.21296,-0.6078 0,-0.7143 -0.63888,-0.3194 -1.50398,0.3195 -2.14286,0 -0.30117,-0.1505 -0.41312,-0.5637 -0.71428,-0.7143 -0.21296,-0.1064 -0.50133,0.1065 -0.71429,0 -0.30117,-0.1505 -0.41312,-0.5637 -0.71429,-0.7142 -0.21295,-0.1065 -0.50132,0.1064 -0.71428,0 -0.30117,-0.1506 -0.41312,-0.5637 -0.71429,-0.7143 -0.21296,-0.1065 -0.47619,0 -0.71428,0 -0.2381,0 -0.50133,-0.1065 -0.71429,0 -0.30117,0.1506 -0.41312,0.5637 -0.71428,0.7143 -0.21296,0.1064 -0.50133,-0.1065 -0.71429,0 -0.30117,0.1505 -0.39485,0.6078 -0.71429,0.7142 -0.45175,0.1506 -0.97681,-0.1505 -1.42857,0 -0.31944,0.1065 -0.41311,0.5638 -0.71428,0.7143 -0.21296,0.1065 -0.47619,0 -0.71429,0 -0.23809,0.2381 -0.41312,0.5637 -0.71428,0.7143 -0.21296,0.1065 -0.54593,-0.1683 -0.71429,0 -0.16836,0.1684 0.21296,0.6078 0,0.7143 -0.42592,0.213 -1.00265,-0.2129 -1.42857,0 -0.21296,0.1065 0.21296,0.6078 0,0.7143 -0.42592,0.213 -0.97682,-0.1506 -1.42857,0 -0.63888,0.213 -0.82624,1.1274 -1.42857,1.4286 -0.21296,0.1064 -0.4762,0 -0.71429,0 -0.47619,0.2381 -0.98559,0.4189 -1.42857,0.7142 -0.56033,0.3736 -0.82623,1.1275 -1.42857,1.4286 -0.21296,0.1065 -0.50133,-0.1065 -0.71429,0 -0.30117,0.1506 -0.41312,0.5637 -0.71428,0.7143 -0.21296,0.1065 -0.50133,-0.1065 -0.71429,0 -0.30117,0.1506 -0.41312,0.5637 -0.71429,0.7143 -0.21295,0.1065 -0.54592,-0.1684 -0.71428,0 -0.16836,0.1684 0.10648,0.5013 0,0.7143 -0.78966,1.5793 -0.44332,0.2216 -1.42857,0.7143 -1.57933,0.7896 -0.22166,0.4433 -0.71429,1.4285 -0.42857,0.8572 -1.71428,1.2858 -2.14286,2.1429 -0.12915,0.2583 0,3.0746 0,3.5714 0,0.3081 -0.0238,4.9763 0,5 0.33672,0.3367 1.09186,-0.3367 1.42858,0 0.33671,0.3367 -0.15059,0.9768 0,1.4286 0.74317,2.2295 0.47619,-0.2381 1.42857,0.7143 0.37646,0.3764 0.41896,0.9856 0.71428,1.4286 0.6551,0.9826 1.10194,0.7346 2.14286,1.4285 0.8405,0.5604 1.33473,1.5368 2.14286,2.1429 0.42591,0.3194 0.95238,0.4762 1.42857,0.7143 1.84262,0.9213 3.76137,1.4919 5.71428,2.1428 3.70568,1.2353 7.57324,2.2146 11.42858,2.8572 1.66068,0.2768 3.3491,0.3841 5,0.7143 1.92525,0.385 3.80952,0.9523 5.71428,1.4285 2.14286,0.2381 4.30186,0.3599 6.42857,0.7143 4.33053,0.7218 8.52662,2.1354 12.85715,2.8572 2.1267,0.3544 4.32386,0.2465 6.42857,0.7142 2.20498,0.49 4.27464,1.4627 6.42857,2.1429 2.3704,0.7485 4.71626,1.6036 7.14286,2.1429 1.87387,0.4164 3.82757,0.3605 5.71428,0.7142 1.92976,0.3619 3.76813,1.1691 5.71429,1.4286 1.65204,0.2203 3.35271,-0.2534 5,0 1.48833,0.229 2.80035,1.181 4.28571,1.4286 1.40914,0.2348 2.88489,-0.2802 4.28572,0 1.04411,0.2088 1.82414,1.1703 2.85714,1.4285 0.92394,0.231 1.91211,-0.1181 2.85714,0 4.96829,0.6211 0.92837,1.1072 7.14286,2.1429 1.40913,0.2349 2.8715,-0.202 4.28571,0 1.94365,0.2777 3.76435,1.1992 5.71429,1.4286 2.12818,0.2503 4.28901,-0.1189 6.42857,0 13.45592,0.7475 -0.60962,0.4595 12.85714,2.1428 1.6538,0.2068 3.35272,-0.2534 5,0 1.48834,0.229 2.800359,1.181 4.285717,1.4286 1.409134,0.2349 2.86301,-0.1293 4.285714,0 7.42328,0.6749 -0.526454,0.7456 7.857143,2.1429 1.409134,0.2348 2.86301,-0.1294 4.285714,0 1.209067,0.1099 2.362363,0.6043 3.571429,0.7142 2.619048,0.2381 7.619048,-0.3174 10,0 1.718154,0.2291 3.281846,1.1995 5,1.4286 1.888053,0.2518 3.809524,0 5.714286,0 1.904762,0 3.809524,0 5.714286,0 4.761904,0 9.523809,0 14.285714,0 5.47619,0 10.952381,0 16.428571,0 1.666667,0 3.35601,0.274 5,0 1.264737,-0.2108 2.319779,-1.1504 3.571429,-1.4286 0.929702,-0.2065 1.904762,0 2.8571427,0 0.2380952,0 0.545927,0.1684 0.7142857,0 0.1683588,-0.1683 0,-0.4761 0,-0.7142 0,-0.4762 0,-0.9524 0,-1.4286 0,-0.6728 0.1354434,-3.1651 0,-3.5714 -0.1064794,-0.3195 -0.563701,-0.4132 -0.7142857,-0.7143 -0.1064794,-0.213 0.1064794,-0.5014 0,-0.7143 -0.1505846,-0.3012 -0.5637011,-0.4131 -0.7142857,-0.7143 -0.212959,-0.4259 0.2129588,-1.0026 0,-1.4286 -1.486343,-2.9726 0.049311,0.7636 -1.428571,-0.7142 -0.168359,-0.1684 0,-0.4762 0,-0.7143 0,-1.4286 0,-2.8572 0,-4.2857 0,-0.2381 0,-0.4762 0,-0.7143 0,-0.2381 -0.10648,-0.5014 0,-0.7143 0.150584,-0.3012 0.607806,-0.3949 0.714285,-0.7143 0.150585,-0.4518 -0.150584,-0.9768 0,-1.4286 0.10648,-0.3194 0.563701,-0.4131 0.714286,-0.7143 0.2129588,-0.4259 -0.212959,-1.0026 0,-1.4285 0.1505846,-0.3012 0.5637011,-0.4131 0.7142857,-0.7143 0.1064794,-0.213 -0.1064794,-0.5013 0,-0.7143 0.1505847,-0.3012 0.5637011,-0.4131 0.7142857,-0.7143 0.2129589,-0.4259 -0.2129588,-1.0026 0,-1.4286 0.1505847,-0.3011 0.5637011,-0.4131 0.7142857,-0.7142 0.2857143,-0.5715 -0.2857143,-1.5715 0,-2.1429 0.1505847,-0.3012 0.5637011,-0.4131 0.7142857,-0.7143 0.1064795,-0.2129 -0.1064794,-0.5013 0,-0.7143 0.1505847,-0.3011 0.5637011,-0.4131 0.7142858,-0.7143 0.1062411,-0.2124 0,-3.9852 0,-4.2857 0,-0.3217 0.1086907,-1.9254 0,-2.1428 -0.1505847,-0.3012 -0.5637011,-0.4131 -0.7142858,-0.7143 -0.1064794,-0.213 0.1064795,-0.5013 0,-0.7143 -0.1505846,-0.3012 -0.563701,-0.4131 -0.7142857,-0.7143 -0.1064794,-0.2129 0.1064795,-0.5013 0,-0.7143 -0.1505846,-0.3011 -0.563701,-0.4131 -0.7142857,-0.7143 -0.1064794,-0.2129 0.1064794,-0.5013 0,-0.7142 -0.1505846,-0.3012 -0.6078063,-0.3949 -0.7142857,-0.7143 -0.1545653,-0.4637 0,-4.3512 0,-5 0,-0.2381 0,-0.4762 0,-0.7143 0,-0.2381 0.1064794,-0.5013 0,-0.7143 -0.1505846,-0.3012 -0.6078063,-0.3948 -0.7142857,-0.7143 -0.225877,-0.6776 0,-1.4286 0,-2.1428 0,-1.1905 0,-2.381 0,-3.5715 0,-0.2381 0,-0.4762 0,-0.7143 0,-0.2381 0.1064794,-0.5013 0,-0.7142 -0.150585,-0.3012 -0.563701,-0.4132 -0.714286,-0.7143 -0.141604,-0.2832 0.146026,-1.9969 0,-2.1429 -0.168358,-0.1683 -0.545927,0.1684 -0.714285,0 -0.168359,-0.1683 0.212958,-0.6078 0,-0.7143 -0.425918,-0.2129 -1.002654,0.213 -1.428572,0 -0.212959,-0.1065 0.168359,-0.5459 0,-0.7143 -0.376461,-0.3764 -0.98559,-0.4189 -1.428571,-0.7142 -0.280166,-0.1868 -0.394848,-0.6078 -0.714286,-0.7143 -0.451754,-0.1506 -1.002654,0.2129 -1.428571,0 -0.602339,-0.3012 -0.826233,-1.1274 -1.428572,-1.4286 -0.425918,-0.213 -0.961628,0.093 -1.428571,0 -3.922323,-0.7845 -0.629687,-0.8402 -3.571429,-1.4286 -0.700415,-0.1401 -1.428571,0 -2.142857,0 -1.666667,0 -3.333333,0 -5,0 -5.952381,0 -11.904762,0 -17.857143,0 -6.190476,0 -12.380952,0 -18.571428,0 -1.428572,0 -2.857143,0 -4.285715,0 -1.428571,0 -2.880186,-0.2555 -4.285714,0 -1.2615,0.2294 -2.319779,1.1505 -3.571429,1.4286 -0.929702,0.2066 -1.904762,0 -2.857143,0 -0.95238,0 -1.904761,0 -2.857142,0 -0.952381,0 -1.933198,-0.231 -2.857143,0 -1.033002,0.2582 -1.824141,1.1703 -2.857143,1.4286 -0.923945,0.231 -1.904762,0 -2.857143,0 -0.47619,0 -0.952381,0 -1.428571,0 -3.333334,0 -6.666666,0 -9.999996,0 -0.71429,0 -1.42858,0 -2.14286,0 -0.71429,0 -1.44244,-0.1401 -2.14286,0 -0.52206,0.1044 -0.90651,0.6098 -1.42857,0.7143 -0.75428,0.1508 -3.96701,0 -5,0 -3.80952,0 -7.61905,0 -11.42857,0 -1.19048,0 -2.40407,0.2334 -3.57143,0 -0.52206,-0.1045 -0.90651,-0.6099 -1.42857,-0.7143 -0.73318,-0.1467 -3.99414,0 -5,0 -3.09524,0 -6.19048,0 -9.28572,0 -4.28571,0 -8.57142,0 -12.85714,0 -0.84757,0 -5.02106,-0.1387 -5.71428,0 -0.52206,0.1044 -0.90652,0.6098 -1.42858,0.7143 -0.75427,0.1508 -3.967,0 -5,0 -0.47619,0 -0.96659,-0.1155 -1.42857,0 -0.5165,0.1291 -0.92349,0.5459 -1.42857,0.7142 -0.22588,0.075 -0.50133,-0.1064 -0.71428,0 -0.30117,0.1506 -0.41312,0.5637 -0.71429,0.7143 -0.21296,0.1065 -0.47619,0 -0.71429,0 -0.47619,0 -0.96659,-0.1155 -1.42857,0 -0.5165,0.1292 -0.91207,0.5852 -1.42857,0.7143 -0.46197,0.1155 -0.95238,0 -1.42857,0 -0.47619,0.2381 -0.9235,0.5459 -1.42857,0.7143 -0.22588,0.075 -0.47619,0 -0.71429,0 -0.71428,0 -1.44244,-0.1401 -2.14285,0 -0.52206,0.1044 -0.9235,0.5459 -1.42858,0.7143 -0.45175,0.1506 -0.96659,-0.1155 -1.42857,0 -0.73044,0.1826 -1.41241,0.5317 -2.14285,0.7143 -0.23099,0.058 -0.48841,-0.075 -0.71429,0 -0.50508,0.1683 -0.9235,0.5459 -1.42857,0.7143 -0.46619,0.1554 -3.43171,0 -4.28572,0 -4.71338,0 -3.97056,0 -9.28571,0 z"
         id="path4328"
         inkscape:connector-curvature="0" />
    </clipPath>
    <linearGradient
       inkscape:collect="always"
       xlink:href="#linearGradient3883"
       id="linearGradient4330"
       gradientUnits="userSpaceOnUse"
       gradientTransform="matrix(1.0029904,0,0,1.0029904,-0.00302077,796.32638)"
       x1="112.46134"
       y1="218.49277"
       x2="124.68597"
       y2="13.49277" />
    <linearGradient
       inkscape:collect="always"
       xlink:href="#linearGradient4003"
       id="linearGradient4332"
       gradientUnits="userSpaceOnUse"
       gradientTransform="matrix(0,1.0029904,-1.0029904,0,1040.9417,785.76424)"
       x1="30.495487"
       y1="944.8067"
       x2="188.97993"
       y2="870.9342" />
  </defs>
  <sodipodi:namedview
     id="base"
     pagecolor="#ffffff"
     bordercolor="#666666"
     borderopacity="1.0"
     inkscape:pageopacity="0.0"
     inkscape:pageshadow="2"
     inkscape:zoom="1.4"
     inkscape:cx="133.575"
     inkscape:cy="56.177221"
     inkscape:document-units="px"
     inkscape:current-layer="layer1"
     showgrid="false"
     inkscape:window-width="1603"
     inkscape:window-height="981"
     inkscape:window-x="0"
     inkscape:window-y="24"
     inkscape:window-maximized="0" />
  <metadata
     id="metadata7">
    <rdf:RDF>
      <cc:Work
         rdf:about="">
        <dc:format>image/svg+xml</dc:format>
        <dc:type
           rdf:resource="http://purl.org/dc/dcmitype/StillImage" />
        <dc:title></dc:title>
      </cc:Work>
    </rdf:RDF>
  </metadata>
  <g
     inkscape:label="Layer 1"
     inkscape:groupmode="layer"
     id="layer1"
     transform="translate(0,-796.36218)">
    <g
       id="g4306"
       transform="translate(2.2687844,12.054565)">
      <path
         id="path3787"
         d="m 47.576336,810.8384 c -5.961629,0 -11.938084,2.2843 -16.486654,6.83287 -9.097141,9.09714 -9.097141,23.84482 0,32.94197 0.232614,0.23261 0.481082,0.46883 0.720899,0.68955 l -0.03134,0.0313 60.994353,60.96301 -60.994353,60.99436 0.03134,0.0313 c -0.239817,0.22072 -0.488285,0.45694 -0.720899,0.68956 -9.097141,9.09714 -9.097141,23.84482 0,32.94198 9.097141,9.0972 23.844825,9.0972 32.941966,0 0.236775,-0.2368 0.465106,-0.4766 0.689555,-0.7209 l 0.03134,0.031 60.994357,-60.99438 61.68391,61.68398 c 9.09714,9.0971 23.84482,9.0971 32.94197,0 9.0656,-9.06567 9.09676,-23.74348 0.094,-32.848 l -61.77794,-61.77794 61.68391,-61.71525 c 9.09714,-9.09715 9.09714,-23.84483 0,-32.94197 -9.06497,-9.06497 -23.74327,-9.09488 -32.84794,-0.094 l -0.094,0.094 c -0.28429,0.28428 -0.57976,0.58264 -0.84627,0.87762 l -60.83764,60.80639 -60.994357,-60.99435 -0.03134,0.0313 c -0.220718,-0.23982 -0.456941,-0.48829 -0.689555,-0.7209 -4.548571,-4.54857 -10.493682,-6.83287 -16.455312,-6.83287 z"
         style="color:#000000;fill:url(#linearGradient4330);fill-opacity:1;fill-rule:nonzero;stroke:#000000;stroke-width:5.01495218;stroke-linecap:round;stroke-linejoin:bevel;stroke-miterlimit:10;stroke-opacity:1;stroke-dasharray:none;stroke-dashoffset:0;marker:none;visibility:visible;display:inline;overflow:visible;enable-background:accumulate"
         inkscape:connector-curvature="0" />
      <path
         inkscape:connector-curvature="0"
         id="path4023-5"
         d="m 212.85465,999.4312 c 2.65856,-2.65854 4.32182,-6.3377 4.32182,-10.39452 1e-5,-3.71891 -1.40086,-7.11947 -3.67908,-9.70746 l 0.0887,-0.0887 -66.86627,-66.86628 66.09056,-66.09055 -0.15514,-0.15515 c 2.7638,-2.67127 4.47695,-6.40234 4.47695,-10.54966 0,-8.11362 -6.58055,-14.69417 -14.69418,-14.69418 -4.14678,0 -7.87845,1.71378 -10.54966,4.47696 l -0.0665,-0.0665 -66.09057,66.09056 -66.888425,-66.88843 -0.08866,0.0887 c -2.593784,-2.3029 -5.988224,-3.70124 -9.729629,-3.70125 -8.113631,1e-5 -14.6942,6.58056 -14.6942,14.69418 0,3.74118 1.39867,7.13591 3.701265,9.72963 l -0.177269,0.17731 66.888398,66.88842 -66.489498,66.4895 0.08866,0.0887 c -2.490927,2.6323 -4.055792,6.17412 -4.055893,10.08423 1.01e-4,8.11363 6.58059,14.69419 14.694211,14.69419 3.910218,0 7.474074,-1.5427 10.106402,-4.0337 l 0.155143,0.15514 66.489495,-66.4895 66.86627,66.86626 0.17731,-0.1773 c 2.58795,2.278 5.98873,3.6791 9.70748,3.6791 4.0568,0 7.7138,-1.6411 10.37235,-4.29967 z"
         style="color:#000000;fill:#ffffff;fill-opacity:0.12000002;stroke:url(#linearGradient4332);stroke-width:5.01495218;stroke-linecap:round;stroke-linejoin:bevel;stroke-miterlimit:10;stroke-opacity:1;stroke-dasharray:none;stroke-dashoffset:0;marker:none;visibility:visible;display:inline;overflow:visible;enable-background:accumulate" />
    </g>
  </g>
</svg>
